<?xml version="1.0" encoding="utf-8"?>
<!-- Generator: Adobe Illustrator 23.0.3, SVG Export Plug-In . SVG Version: 6.00 Build 0)  -->
<svg version="1.1" id="Layer_1" xmlns="http://www.w3.org/2000/svg" xmlns:xlink="http://www.w3.org/1999/xlink" x="0px" y="0px"
	 viewBox="0 0 1000 549" style="enable-background:new 0 0 1000 549;" xml:space="preserve">
<style type="text/css">
	.st0{fill:#1A1A1A;}
	.st1{fill:#71C5C4;}
	.st2{fill:#4D504E;}
	.st3{fill:#FFFFFF;}
</style>
<g>
	<g>
		<path class="st0" d="M91.37,508.79c-2.46-0.83-4.5-1.86-6.13-3.06c-1.67-1.16-3.02-2.32-3.99-3.48l2.32-2.13
			c3.81,4.41,9.38,6.68,16.71,6.78c3.39,0,6.27-0.51,8.54-1.48c2.27-0.98,3.95-2.23,5.11-3.85c1.16-1.58,1.72-3.29,1.72-5.2
			c0-2.14-0.7-3.9-2.14-5.29s-3.3-2.6-5.57-3.57c-2.27-0.97-4.73-1.86-7.38-2.74c-5.62-1.86-9.75-3.67-12.39-5.43
			c-3.85-2.55-5.8-5.94-5.8-10.17c0-4.04,1.86-7.38,5.62-9.98c3.76-2.55,8.54-3.85,14.44-3.85c2.74,0,5.25,0.42,7.57,1.25
			c2.32,0.88,4.32,1.86,5.99,3.02s2.92,2.27,3.81,3.25l-2.37,2.14l-1.02-0.97c-0.7-0.7-1.67-1.44-2.92-2.27
			c-1.3-0.84-2.88-1.58-4.69-2.27c-1.86-0.65-3.95-0.98-6.22-0.98c-4.18,0-7.47,0.79-9.93,2.41c-2.46,1.63-3.71,3.62-3.71,5.94
			c0,2.23,0.74,4.04,2.18,5.48c1.44,1.44,3.34,2.65,5.66,3.62c2.27,0.97,4.73,1.9,7.38,2.79c5.62,1.81,9.7,3.62,12.3,5.34
			c3.85,2.51,5.76,5.9,5.76,10.12c0,2.79-0.93,5.38-2.79,7.75c-1.9,2.41-4.5,4.36-7.8,5.85c-3.3,1.53-7.15,2.27-11.51,2.27
			C96.71,510.04,93.83,509.62,91.37,508.79z"/>
		<path class="st0" d="M149.58,456.48h4.27l23.63,52.64h-51.57L149.58,456.48z M149.58,463.44l-19.08,42.52h38.8L149.58,463.44z"/>
		<path class="st0" d="M190.99,506.33c-4.08-2.46-7.33-5.76-9.79-9.89s-3.71-8.73-3.71-13.74c0-5.06,1.25-9.66,3.71-13.79
			s5.71-7.47,9.79-9.93c4.04-2.46,8.49-3.67,13.32-3.67c3.39,0,6.59,0.6,9.61,1.81c3.02,1.25,5.76,2.97,8.17,5.15l-3.2,3.2
			c-3.76-4.69-8.63-7.01-14.58-7.01c-3.95,0-7.38,1.07-10.4,3.16c-3.02,2.09-5.34,4.97-7.06,8.59c-1.72,3.67-2.55,7.8-2.55,12.49
			c0,4.64,0.84,8.77,2.55,12.44c1.67,3.67,3.99,6.5,7.01,8.59s6.5,3.16,10.44,3.16c5.99,0,10.86-2.32,14.58-7.01l3.2,3.2
			c-2.41,2.18-5.15,3.9-8.17,5.11c-3.02,1.25-6.22,1.86-9.61,1.86C199.49,510.04,195.03,508.79,190.99,506.33z"/>
		<path class="st0" d="M265.27,509.11l-15.18-24.74h-14.71v24.74h-6.31v-52.64h23.12c3.3,0,6.27,0.6,9,1.76
			c2.74,1.21,4.87,2.83,6.5,4.92c1.62,2.09,2.41,4.5,2.41,7.24c0,3.43-1.21,6.36-3.67,8.73s-5.62,3.99-9.52,4.78l15.5,25.2H265.27z
			 M260.07,478.29c2.14-1.95,3.2-4.59,3.2-7.89s-1.07-5.9-3.2-7.84c-2.13-1.95-4.78-2.92-7.89-2.92h-16.8v21.58h16.8
			C255.29,481.22,257.93,480.24,260.07,478.29z"/>
		<path class="st0" d="M279.38,509.11v-52.64h37.88v3.16H285.7v21.58h28.41v3.16H285.7v21.58h32.63v3.16H279.38z"/>
		<path class="st0" d="M325.3,509.11v-52.64h17.36c4.87,0,9.33,1.16,13.41,3.43c4.04,2.27,7.29,5.43,9.75,9.38s3.67,8.45,3.67,13.51
			s-1.21,9.56-3.67,13.51c-2.46,3.95-5.71,7.1-9.75,9.38c-4.08,2.27-8.54,3.43-13.41,3.43H325.3z M357.23,499.5
			c3.62-4.18,5.43-9.75,5.43-16.71c0-6.96-1.86-12.58-5.57-16.8c-3.71-4.22-8.54-6.36-14.44-6.36h-11.05v46.32h11.05
			C348.74,505.86,353.56,503.73,357.23,499.5z"/>
		<path class="st0" d="M420.92,509.11v-49.48h-18.94v-3.16h44.19v3.16h-18.94v49.48H420.92z"/>
		<path class="st0" d="M453.14,509.11v-52.64h37.88v3.16h-31.56v21.58h28.41v3.16h-28.41v21.58h32.63v3.16H453.14z"/>
		<path class="st0" d="M542.22,509.11l-18.89-23.91l-20.47,23.91h-3.81l22.47-26.18l-20.89-26.46h7.33l17.36,22l18.89-22h3.81
			l-20.84,24.28l22.37,28.36H542.22z"/>
		<path class="st0" d="M573.14,509.11v-49.48h-18.94v-3.16h44.19v3.16h-18.94v49.48H573.14z"/>
		<path class="st0" d="M641.01,508.79c-2.46-0.83-4.5-1.86-6.13-3.06c-1.67-1.16-3.02-2.32-3.99-3.48l2.32-2.13
			c3.81,4.41,9.38,6.68,16.71,6.78c3.39,0,6.27-0.51,8.54-1.48c2.27-0.98,3.95-2.23,5.11-3.85c1.16-1.58,1.72-3.29,1.72-5.2
			c0-2.14-0.7-3.9-2.14-5.29c-1.44-1.39-3.3-2.6-5.57-3.57c-2.27-0.97-4.73-1.86-7.38-2.74c-5.62-1.86-9.75-3.67-12.39-5.43
			c-3.85-2.55-5.8-5.94-5.8-10.17c0-4.04,1.86-7.38,5.62-9.98c3.76-2.55,8.54-3.85,14.44-3.85c2.74,0,5.25,0.42,7.57,1.25
			c2.32,0.88,4.32,1.86,5.99,3.02c1.67,1.16,2.92,2.27,3.81,3.25l-2.37,2.14l-1.02-0.97c-0.7-0.7-1.67-1.44-2.92-2.27
			c-1.3-0.84-2.88-1.58-4.69-2.27c-1.86-0.65-3.95-0.98-6.22-0.98c-4.18,0-7.47,0.79-9.93,2.41s-3.71,3.62-3.71,5.94
			c0,2.23,0.74,4.04,2.18,5.48c1.44,1.44,3.34,2.65,5.66,3.62c2.27,0.97,4.74,1.9,7.38,2.79c5.62,1.81,9.7,3.62,12.3,5.34
			c3.85,2.51,5.76,5.9,5.76,10.12c0,2.79-0.93,5.38-2.79,7.75c-1.9,2.41-4.5,4.36-7.8,5.85c-3.29,1.53-7.15,2.27-11.51,2.27
			C646.35,510.04,643.47,509.62,641.01,508.79z"/>
		<path class="st0" d="M678.8,509.11v-52.64h37.88v3.16h-31.56v21.58h28.41v3.16h-28.41v21.58h32.63v3.16H678.8z"/>
		<path class="st0" d="M748.39,456.48h4.27l23.63,52.64h-51.57L748.39,456.48z M748.39,463.44l-19.08,42.52h38.8L748.39,463.44z"/>
		<path class="st0" d="M819.46,509.11l-15.18-24.74h-14.71v24.74h-6.31v-52.64h23.12c3.29,0,6.27,0.6,9,1.76
			c2.74,1.21,4.87,2.83,6.5,4.92s2.41,4.5,2.41,7.24c0,3.43-1.21,6.36-3.67,8.73c-2.46,2.37-5.62,3.99-9.52,4.78l15.5,25.2H819.46z
			 M814.26,478.29c2.13-1.95,3.2-4.59,3.2-7.89s-1.07-5.9-3.2-7.84c-2.14-1.95-4.78-2.92-7.89-2.92h-16.8v21.58h16.8
			C809.48,481.22,812.13,480.24,814.26,478.29z"/>
		<path class="st0" d="M847.08,506.33c-4.08-2.46-7.33-5.76-9.79-9.89c-2.46-4.13-3.71-8.73-3.71-13.74c0-5.06,1.25-9.66,3.71-13.79
			c2.46-4.13,5.71-7.47,9.79-9.93c4.04-2.46,8.49-3.67,13.32-3.67c3.39,0,6.59,0.6,9.61,1.81c3.02,1.25,5.76,2.97,8.17,5.15
			l-3.2,3.2c-3.76-4.69-8.63-7.01-14.58-7.01c-3.95,0-7.38,1.07-10.4,3.16c-3.02,2.09-5.34,4.97-7.06,8.59
			c-1.72,3.67-2.55,7.8-2.55,12.49c0,4.64,0.84,8.77,2.55,12.44c1.67,3.67,3.99,6.5,7.01,8.59c3.02,2.09,6.5,3.16,10.44,3.16
			c5.99,0,10.86-2.32,14.58-7.01l3.2,3.2c-2.41,2.18-5.15,3.9-8.17,5.11c-3.02,1.25-6.22,1.86-9.61,1.86
			C855.58,510.04,851.12,508.79,847.08,506.33z"/>
		<path class="st0" d="M926.19,509.11v-24.74h-34.72v24.74h-6.31v-52.64h6.31v24.74h34.72v-24.74h6.31v52.64H926.19z"/>
	</g>
	<g>
		<g>
			<g>
				<path class="st1" d="M705.75,200.68c0,93.16-75.52,168.68-168.68,168.68c-43.37,0-82.91-16.36-112.78-43.24
					c14.31,5.25,29.78,8.1,45.92,8.1c73.75,0,133.54-59.79,133.54-133.54S543.96,67.14,470.21,67.14c-16.13,0-31.6,2.86-45.92,8.1
					C454.16,48.36,493.71,32,537.08,32C630.24,32,705.75,107.52,705.75,200.68z"/>
				<path class="st2" d="M424.29,326.11c-51.13-18.72-87.62-67.82-87.62-125.44c0-57.62,36.5-106.72,87.62-125.44
					c-34.32,30.88-55.9,75.64-55.9,125.44S389.97,295.23,424.29,326.11z"/>
			</g>
			<g>
				
					<rect x="705.14" y="297.57" transform="matrix(0.6308 -0.776 0.776 0.6308 9.2297 686.0964)" class="st1" width="40.82" height="71.55"/>
				
					<rect x="674.48" y="282.07" transform="matrix(0.6308 -0.776 0.776 0.6308 19.4442 644.064)" class="st1" width="24.01" height="39.07"/>
			</g>
			<g>
				<g>
					<g>
						
							<rect x="272.18" y="246.69" transform="matrix(0.906 -0.4233 0.4233 0.906 -82.8672 151.4413)" class="st2" width="54.65" height="31.17"/>
					</g>
					<g>
						
							<rect x="322.13" y="236.41" transform="matrix(0.906 -0.4233 0.4233 0.906 -72.2681 165.7651)" class="st2" width="29.84" height="18.34"/>
					</g>
				</g>
			</g>
		</g>
		<g>
			<g>
				<path class="st2" d="M519.83,179.82c-3.6,0.32-7.22,0.2-10.81,0.58c-1.46,0.16-2.94,0.06-4.42,0.19
					c-2.37,0.22-4.78,0.13-7.16,0.27c-4.52,0.27-9.04,0.42-13.56,0.67c-2.41,0.13-4.83,0.25-7.25,0.35
					c-5.09,0.2-10.16,0.57-15.25,0.71c-2.91,0.08-5.82,0.25-8.72,0.42c-4.84,0.29-9.67,0.56-14.52,0.6
					c0.08,0.98,0.15,1.96,0.26,2.93c0.33,2.92,0.69,5.83,1.02,8.75c0.24,2.16,0.39,4.33,0.69,6.47c0.41,2.88,0.71,5.76,1.02,8.65
					c0.23,2.19,0.53,4.37,0.78,6.56c0.24,2.09,0.46,4.17,0.69,6.26c0.24,2.19,0.45,4.39,0.7,6.58c0.32,2.85,0.69,5.69,0.98,8.55
					c0.13,1.3,0.3,1.52,1.62,1.28c2.44-0.43,4.89-0.86,7.31-1.39c6.99-1.54,13.7-3.82,20.19-6.82c2.77-1.28,5.47-2.68,8.14-4.14
					c0.34-0.19,0.68-0.37,0.83-0.76c-2.81-0.06-5.61,0.39-8.42,0.13c3.55-0.62,7.14-0.76,10.72-1.02c0.09-0.42,0.42-0.6,0.74-0.82
					c1.56-1.04,3.11-2.1,4.64-3.18c0.26-0.18,0.73-0.3,0.54-0.81c-0.94,0.08-1.89,0.16-2.83,0.24c-2.38,0.19-4.75,0.46-7.13,0.56
					c-2.16,0.1-4.34,0.02-6.51,0.02c3.68-0.52,7.38-0.83,11.09-1c1.79-0.08,3.59,0.1,5.37-0.19c0.72,0.02,1.3-0.17,1.9-0.66
					c0.94-0.78,1.85-1.61,2.79-2.38c3.39-2.79,6.42-5.95,9.3-9.24c-1.1,0-2.2,0-3.3,0c0-0.04,0-0.08,0.01-0.12
					c1.38-0.18,2.76-0.36,4.13-0.54c0.05-0.36,0.2-0.68,0.45-0.93c1.16-1.17,2.01-2.58,2.95-3.92c-2.66-0.03-5.32,0.41-7.99,0.1
					c1.51-0.24,3.04-0.35,4.55-0.56c1.42-0.2,2.88,0.04,4.27-0.39c0.08-0.19,0.15-0.38,0.25-0.56c0.71-1.31,1.73-2.44,2.28-3.85
					c-0.35,0.2-0.74,0.2-1.13,0.19c-2.88-0.03-5.75,0.35-8.63,0.21c-0.43-0.02-0.89,0.35-1.54-0.1c4.12-0.53,8.03-0.74,11.93-0.99
					c0.79-1.55,1.57-3.1,2.36-4.65c-1.4,0.08-2.81,0.05-4.19,0.27c-1.57,0.24-3.14,0.16-4.71,0.31c-1.87,0.18-3.76,0.04-5.65,0.04
					c4.96-0.86,9.97-0.92,14.96-1.24c0.68-1.57,1.42-3.13,2.03-4.73C518.47,184.45,519.47,182.23,519.83,179.82z M465.56,185.71
					c2.01-0.03,4,0.02,5.95,0.59c0.47,0.14,0.88,0.33,0.9,0.89c0.01,0.46-0.27,0.7-0.69,0.94c-2.9,1.65-6.14,2.06-9.33,2.66
					c-2.1,0.4-4.24,0.5-6.36,0.69c-2.92,0.26-5.8,0.32-8.66-0.45c-0.45-0.12-0.92-0.13-0.96-0.76c-0.04-0.67,0.3-0.95,0.89-1.23
					c2.69-1.28,5.54-1.88,8.46-2.34C459.01,186.19,462.26,185.71,465.56,185.71z M489.51,203.96c-2.88,0.73-15.4,1.48-17.44,1.04
					C477.85,204.35,483.65,203.85,489.51,203.96z M473.54,216.32c5.88-0.8,11.76-1.12,17.66-1.09
					C485.33,216.03,479.44,216.48,473.54,216.32z M471.3,194.99c3.86-0.71,15.99-1.43,17.98-1.06
					C483.4,194.61,477.52,195.17,471.3,194.99z M472.27,210.39c5.79-0.8,11.62-1.06,17.47-1.08
					C483.95,210.15,478.13,210.54,472.27,210.39z M460.75,201.03c-5.81,0.8-11.64,1.12-17.5,1.09
					C449.06,201.34,454.89,200.87,460.75,201.03z M462.89,222.61c-6.76,0.91-15.92,1.27-17.51,1.02
					C446.85,223.11,459.34,222.26,462.89,222.61z M445.37,228.59c5.81-0.76,11.65-1.07,17.5-1.06
					C457.06,228.25,451.24,228.81,445.37,228.59z M443.68,207.01c5.75-0.79,11.52-1.03,17.32-1.02
					C455.24,206.64,449.48,207.28,443.68,207.01z M445.71,233.92c5.65-0.84,11.33-1.04,17.04-1.02
					C457.09,233.67,451.42,234.04,445.71,233.92z M443.65,212.41c5.74-0.76,11.5-1.25,17.31-1.03
					C455.22,212.17,449.44,212.38,443.65,212.41z M460.11,195.95c-5.48,0.75-10.99,1.04-16.53,0.95
					C449.07,196.2,454.56,195.7,460.11,195.95z M489,199.08c-5.5,0.73-11.02,1.14-16.57,0.97
					C477.93,199.29,483.46,198.98,489,199.08z M461.84,217.32c-5.49,0.81-11.02,0.99-16.56,0.97
					C450.78,217.61,456.29,217.08,461.84,217.32z"/>
				<path class="st2" d="M482.37,226.52c-0.15,0.39-0.49,0.57-0.83,0.76c-2.67,1.46-5.37,2.86-8.14,4.14
					c-6.49,3-13.21,5.28-20.19,6.82c-2.43,0.54-4.87,0.96-7.31,1.39c-1.32,0.23-1.49,0.01-1.62-1.28c-0.29-2.85-0.66-5.7-0.98-8.55
					c-0.25-2.19-0.46-4.38-0.7-6.58c-0.22-2.09-0.45-4.17-0.69-6.26c-0.25-2.19-0.55-4.37-0.78-6.56c-0.31-2.89-0.61-5.77-1.02-8.65
					c-0.3-2.15-0.45-4.32-0.69-6.47c-0.33-2.92-0.69-5.83-1.02-8.75c-0.11-0.97-0.17-1.95-0.26-2.93c-0.28-2.42-0.57-4.83-0.84-7.25
					c-0.03-0.3-0.08-0.57-0.45-0.57c-0.63-0.01-1.22-0.32-1.86-0.21c0.14,1.21,0.27,2.43,0.43,3.64c0.69,5.19,1.43,10.38,2.08,15.58
					c0.6,4.82,1.17,9.65,1.48,14.5c0.28,4.41,0.55,8.82,0.61,13.24c0.05,3.4-0.18,6.8-0.41,10.2c-0.15,2.26-0.47,4.52-0.8,6.76
					c-0.39,2.63-0.83,5.26-1.53,7.82c-0.5,1.84-0.93,3.72-1.7,5.48c0.04,0.42,0.42,0.48,0.7,0.63c3.26,0.71,6.29-0.04,9.21-1.45
					c0.46-0.18,0.68-0.38,0.59-1.01c-0.28-1.98-0.41-3.97-0.62-5.96c-0.04-0.33,0.08-0.43,0.34-0.52c0.37-0.14,0.76-0.13,1.14-0.16
					c4.48-0.27,8.96-0.56,13.44-0.83c2.66-0.16,5.33-0.28,7.99-0.45c4.17-0.26,8.33-0.59,12.49-0.8c2.42-0.13,4.83-0.28,7.25-0.44
					c4.58-0.31,9.17-0.58,13.76-0.85c2.87-0.17,5.75-0.27,8.62-0.45c3.88-0.25,7.76-0.56,11.64-0.81c1.05-0.07,2.11-0.03,3.17-0.04
					c-0.36-2.26-0.22-4.54-0.37-6.82c-0.2-3.25-0.31-6.51-0.44-9.77c-0.14-3.36-0.27-6.72-0.42-10.09
					c-0.15-3.36-0.29-6.72-0.43-10.09c-0.13-3.26-0.34-6.51-0.41-9.77c-0.1-4.46-0.46-8.9-0.47-13.36
					c-0.84,0.02-1.68,0.03-2.52,0.05c-0.36,2.41-1.36,4.63-2.22,6.88c-0.61,1.6-1.35,3.16-2.03,4.73c0.91,0,1.82,0,2.74,0
					c-0.98,0.6-2.11,0.32-3.14,0.62c-0.79,1.55-1.57,3.1-2.36,4.65c1.79,0.17,3.58-0.23,5.37,0.01c-2.01,0.22-3.98,0.74-6,0.67
					c-0.55,1.41-1.57,2.54-2.28,3.85c-0.1,0.18-0.17,0.37-0.25,0.56c2.95-0.01,5.9-0.41,8.86-0.05c-3.23,0.37-6.44,0.84-9.69,0.9
					c-0.94,1.34-1.79,2.74-2.95,3.92c-0.25,0.25-0.4,0.57-0.45,0.93c1.4-0.07,2.8-0.13,4.19-0.23c3.04-0.22,6.08-0.42,9.13-0.28
					c-4.69,0.74-9.42,1.03-14.16,1.18c-2.88,3.3-5.91,6.45-9.3,9.24c-0.94,0.78-1.84,1.61-2.79,2.38c-0.6,0.5-1.18,0.68-1.9,0.66
					c0,0.12,0,0.25,0.01,0.37c0.19,0.51-0.28,0.63-0.54,0.81c-1.53,1.08-3.08,2.13-4.64,3.18c-0.33,0.22-0.66,0.4-0.74,0.82
					c2.33-0.24,4.65-0.11,6.98-0.07C488.58,226.12,485.47,226.24,482.37,226.52z M520.43,228.56c-5.81,0.79-11.65,1.27-17.53,1.06
					C508.72,228.88,514.56,228.44,520.43,228.56z M491.66,230.89c-5.81,0.81-11.64,1.22-17.5,1.05
					C479.97,231.22,485.8,230.77,491.66,230.89z M502.51,213.97c5.82-0.77,11.65-1.12,17.5-1.05
					C514.19,213.64,508.36,214.18,502.51,213.97z M502.93,224.31c5.73-0.74,11.48-1.23,17.28-1.05
					C514.48,224.01,508.73,224.42,502.93,224.31z M519.87,218.27c-5.62,0.67-11.25,1.27-16.91,1.01
					C508.56,218.47,514.21,218.3,519.87,218.27z"/>
				<path class="st2" d="M435.15,252.79c0.77-1.76,1.19-3.64,1.7-5.48c0.7-2.56,1.14-5.19,1.53-7.82c0.33-2.25,0.65-4.5,0.8-6.76
					c0.23-3.39,0.45-6.8,0.41-10.2c-0.06-4.41-0.33-8.83-0.61-13.24c-0.31-4.85-0.88-9.68-1.48-14.5
					c-0.65-5.2-1.39-10.39-2.08-15.58c-0.16-1.21-0.29-2.43-0.43-3.64c-0.29,0-0.57-0.01-0.86-0.01c-0.63,0.03-1.25,0.06-1.88,0.11
					c-2.59,0.21-4.91,1.23-7.19,2.39c-0.67,0.57-1.32,1.15-2.01,1.69c-0.59,0.46-0.64,1.06-0.52,1.71
					c0.82,4.68,1.66,9.36,2.47,14.05c0.79,4.51,1.62,9.02,2.31,13.54c0.88,5.7,1.94,11.37,2.95,17.06c0.6,3.37,1.1,6.76,1.72,10.13
					c0.98,5.33,1.86,10.68,2.77,16.02C434.8,252.53,434.84,252.75,435.15,252.79z M426.31,188.47c0.02-1.79-0.13-3.59,0.21-5.36
					c0.12-0.65,0.28-1.38,1.03-1.56c0.67-0.16,0.82,0.53,1.07,0.97c1.79,3.14,2.14,6.68,2.75,10.14c0.33,1.86,0.31,3.77,0.51,5.65
					c0.31,2.8,0,5.53-0.33,8.28c-0.06,0.51-0.44,0.98-1.02,1.09c-0.57,0.11-0.65-0.46-0.88-0.77c-0.68-0.91-1.06-1.99-1.34-3.06
					C426.99,198.81,426.1,193.71,426.31,188.47z"/>
				<path class="st2" d="M522.35,179.77c0.01,4.46,0.37,8.9,0.47,13.36c0.08,3.26,0.28,6.51,0.41,9.77
					c0.14,3.36,0.28,6.72,0.43,10.09c0.15,3.36,0.28,6.72,0.42,10.09c0.13,3.26,0.24,6.52,0.44,9.77c0.14,2.27,0,4.56,0.37,6.82
					c-0.09,2.2,0.35,4.39,0.21,6.59c-0.04,0.58,0.26,0.84,0.81,0.84c1.38-3.63,2.99-7.16,4.09-10.9c1.71-5.83,2.84-11.77,3.52-17.78
					c0.47-4.14,0.69-8.3,0.86-12.46c0.15-3.61-0.03-7.24,0.23-10.86c0.17-2.34,0.1-4.7,0.16-7.05c0.12-4.88,0.42-9.75,0.48-14.63
					c0.01-0.57,0.06-1.12,0.22-1.66c-0.24-0.24-0.69-0.28-0.72-0.74c-0.22,0.23-0.44,0.12-0.67,0.02c-2.81-1.2-5.73-1.53-8.74-1.19
					c-0.79,0.15-1.58,0.3-2.37,0.43c-0.74,0.12-1.11,0.5-1.04,1.29C522.16,174.3,522.03,177.05,522.35,179.77z M531.65,194.73
					c0.22,2.86-0.38,6.04-0.87,9.22c-0.07,0.48-0.4,1-0.76,1.35c-0.43,0.41-0.94,0.54-1.34-0.23c-0.46-0.88-0.79-1.82-0.99-2.75
					c-0.62-2.91-0.87-5.88-1.09-8.84c-0.21-2.84,0.1-5.69,0.23-8.53c0.07-1.56,0.4-3.12,1.02-4.58c0.17-0.39,0.2-1.09,0.91-0.97
					c0.58,0.1,0.81,0.61,1.04,1.08c0.48,1.02,0.79,2.12,0.97,3.21C531.36,187.21,531.73,190.77,531.65,194.73z"/>
				<path class="st2" d="M535.47,171.74c-0.16,0.54-0.21,1.09-0.22,1.66c-0.06,4.88-0.36,9.75-0.48,14.63
					c-0.06,2.35,0.01,4.71-0.16,7.05c-0.26,3.62-0.08,7.24-0.23,10.86c-0.17,4.16-0.39,8.33-0.86,12.46
					c-0.68,6.01-1.81,11.95-3.52,17.78c-1.1,3.75-2.71,7.28-4.09,10.9c0.03,0.08,0.06,0.17,0.09,0.25c0.36-0.15,0.69,0.05,1.02,0.11
					c2.86,0.56,5.71,0.86,8.46-0.49c0.52-0.18,0.62-0.57,0.63-1.09c0.05-3.84,0.15-7.67,0.2-11.51c0.08-6.06,0.16-12.12,0.29-18.17
					c0.08-3.84-0.05-7.68,0.18-11.51c0.29-4.93-0.03-9.87,0.22-14.79c0.26-5.14,0.02-10.29,0.21-15.42
					C537.26,173.02,536.76,172.2,535.47,171.74z"/>
				<path class="st2" d="M535.48,246.96c-2.75,1.35-5.6,1.05-8.46,0.49c-0.34-0.07-0.66-0.26-1.02-0.11
					c0.05,0.69,0.1,1.37,0.15,2.06c0.31,0,0.64,0.04,0.94-0.01c2.58-0.44,4.85,0.32,6.95,1.74c0.73,0.03,1.04-0.34,1.1-1.06
					c0.06-0.79,0.23-1.58,0.35-2.36c0.01-0.07,0.02-0.14,0.02-0.21C535.51,247.32,535.5,247.14,535.48,246.96z"/>
				<path class="st2" d="M525.34,169.84c3.01-0.34,5.94-0.01,8.74,1.19c0.23,0.1,0.45,0.21,0.67-0.02
					c-0.03-1.02-0.05-2.05-0.08-3.07c-0.01-0.14-0.02-0.27-0.03-0.41c-0.23-0.24-0.5-0.41-0.84-0.44c-0.08-0.03-0.15-0.07-0.23-0.1
					c-0.09-0.03-0.17-0.05-0.26-0.08c-1.26,1.49-5.53,2.41-7.78,1.68C525.39,168.99,525.29,169.4,525.34,169.84z"/>
				<path class="st2" d="M533.15,166.46c-0.09-1.41-0.17-2.82-0.26-4.22c-1.13,0.23-2.26,0.26-3.38-0.02
					c-0.43,1.27-0.86,2.54-1.3,3.81c1.16,0.15,2.32,0.31,3.49,0.45C532.18,166.53,532.67,166.95,533.15,166.46z"/>
				<path class="st2" d="M532.65,255.74c0.25-1.32,0.5-2.64,0.75-3.96c-0.06-0.31-0.24-0.54-0.57-0.45
					c-1.48,0.36-2.96,0.13-4.44,0.01c0.3,1.47,0.61,2.94,0.91,4.41c0.48-0.41,1.06-0.4,1.65-0.43
					C531.59,255.27,532.04,255.8,532.65,255.74z"/>
				<path class="st2" d="M438.74,256.6c0.52,1.33,1.04,2.67,1.57,4c1.08-0.37,2.2-0.49,3.34-0.42c0.03-1.09,0.06-2.19,0.08-3.28
					c0.04-1.03-0.47-1.08-1.32-0.87C441.21,256.34,439.99,256.6,438.74,256.6z"/>
				<path class="st2" d="M427.06,168.98c-0.02,0.29-0.04,0.58-0.06,0.87c0.02,0.02,0.07,0.05,0.06,0.06
					c-0.02,0.05-0.05,0.1-0.07,0.15c-0.01,0.14-0.01,0.28-0.02,0.43c0.19,0.14,0.18,0.28-0.01,0.42c-0.05,0.79-0.09,1.58-0.14,2.37
					c1.67-0.23,3.33-0.45,5-0.68c-0.5-1.41-1-2.82-1.5-4.23C429.24,168.63,428.32,169.69,427.06,168.98z M427.2,171.34
					c0.01-0.03,0.03-0.06,0.04-0.08c0.02,0.02,0.05,0.05,0.06,0.07c0,0.03-0.03,0.06-0.04,0.08
					C427.24,171.38,427.22,171.36,427.2,171.34z"/>
				<path class="st2" d="M533.15,166.46c-0.48,0.49-0.97,0.07-1.46,0.01c-1.16-0.14-2.32-0.3-3.49-0.45
					c-0.1,0.02-0.2,0.06-0.31,0.07c-2.23,0.2-2.23,0.2-2.36,2.5c2.25,0.73,6.52-0.19,7.78-1.68
					C533.27,166.76,533.21,166.61,533.15,166.46z"/>
				<path class="st2" d="M431.82,172.6c-1.67,0.23-3.33,0.45-5,0.68c-0.19,0.08-0.38,0.16-0.57,0.23c-1.67,0.55-1.67,0.55-1.39,2.28
					c0.51,0.72,1.17,0.6,1.88,0.38c2.13-0.65,4-1.72,5.5-3.4C432.1,172.7,431.96,172.65,431.82,172.6z"/>
				<path class="st2" d="M432.24,172.76c-1.5,1.68-3.37,2.75-5.5,3.4c-0.7,0.22-1.37,0.34-1.88-0.38c0.03,0.22,0.05,0.44,0.08,0.66
					c0.14,0.2,0.1,0.42,0.07,0.63c0.01,0.33,0.03,0.66,0.04,0.99c2.27-1.16,4.59-2.19,7.19-2.39c0.63-0.05,1.25-0.07,1.88-0.11
					c-0.04-0.8-0.39-1.52-0.6-2.28C433.33,172.6,432.74,172.77,432.24,172.76z"/>
				<path class="st2" d="M445.06,251.97c-2.92,1.42-5.95,2.17-9.21,1.45c0.14,0.63,0.28,1.26,0.41,1.89
					c2.6-1.15,5.18-1.38,7.68,0.26c0.98-0.12,1.36-0.66,1.22-1.64C445.07,253.29,445.09,252.63,445.06,251.97z"/>
				<path class="st2" d="M528.39,251.33c1.48,0.12,2.96,0.35,4.44-0.01c0.33-0.08,0.51,0.14,0.57,0.45c0.13-0.3,0.34-0.53,0.65-0.65
					c-2.11-1.41-4.38-2.18-6.95-1.74c-0.31,0.05-0.63,0.01-0.94,0.01C526.11,251.15,526.13,251.17,528.39,251.33z"/>
				<path class="st2" d="M443.95,255.58c-2.51-1.65-5.08-1.42-7.68-0.26c-0.07,0.96,0.33,1.43,1.33,1.32
					c0.38-0.04,0.76-0.02,1.14-0.03c1.25-0.01,2.47-0.26,3.67-0.57c0.85-0.21,1.36-0.16,1.32,0.87
					C443.8,256.46,443.87,256.02,443.95,255.58z"/>
				<path class="st2" d="M532.65,255.74c-0.61,0.06-1.06-0.46-1.69-0.43c-0.6,0.03-1.17,0.03-1.65,0.43
					c-0.32,0.24-0.68,0.44-0.83,0.85c2.02,0.34,3.5,1.43,4.47,3.23c1.04-1.03,1.13-2.22,0.25-3.34
					C533,256.24,532.69,256.09,532.65,255.74z"/>
				<path class="st2" d="M443.64,260.19c-1.14-0.07-2.25,0.05-3.34,0.42c-0.01,0.45-0.5,0.63-0.58,1.04
					c2.04,0.05,3.57,1.14,5.01,2.42c0.84-0.85,0.44-2.55-0.37-3.17C444.1,260.69,443.74,260.57,443.64,260.19z"/>
				<path class="st2" d="M529.51,162.21c1.13,0.29,2.25,0.25,3.38,0.02c0.38-0.49,0.96-0.79,1.22-1.39
					c0.46-1.05,0.24-1.97-0.74-2.86c-0.26,0.92-0.82,1.6-1.51,2.26c-0.74,0.69-1.83,0.65-2.53,1.36
					C529.39,161.8,529.45,162.01,529.51,162.21z"/>
				<path class="st2" d="M427.06,168.98c1.26,0.71,2.18-0.36,3.26-0.62c0.2-0.56,0.71-0.96,0.8-1.58c0.15-1.02-0.1-1.87-1.02-2.44
					c-0.23,0.03-0.38,0.14-0.43,0.38c-0.39,1.82-1.61,2.95-3.15,3.83C426.7,168.7,426.88,168.84,427.06,168.98z"/>
				<path class="st2" d="M426.52,168.56c1.53-0.88,2.76-2.01,3.15-3.83c0.05-0.24,0.2-0.36,0.43-0.38c-1.68-1.03-3.75-0.46-4.5,1.23
					C425.1,166.72,425.42,167.74,426.52,168.56z M426.08,165.85c0.02-0.68,0.88-1.55,1.45-1.47c0.5,0.08,0.93,0.31,0.89,0.95
					c-0.04,0.65-0.81,1.33-1.5,1.34C426.28,166.7,426.03,166.39,426.08,165.85z"/>
				<path class="st2" d="M529.33,161.6c0.7-0.71,1.79-0.67,2.53-1.36c0.7-0.65,1.25-1.34,1.51-2.26c-1.3-1-2.91-0.99-4.03,0.03
					C528.22,159.02,528.22,160.43,529.33,161.6z M529.37,159.04c0.04-0.69,0.97-1.5,1.68-1.44c0.59,0.05,0.86,0.42,0.83,1
					c-0.03,0.65-0.88,1.34-1.59,1.21C529.89,159.74,529.33,159.71,529.37,159.04z"/>
				<path class="st2" d="M532.95,259.82c-0.97-1.79-2.45-2.89-4.47-3.23c-0.79,1.18-0.66,2.18,0.42,3.21
					c-0.01-0.1,0.01-0.23-0.04-0.31c-0.31-0.49-0.64-1-0.09-1.51c0.4-0.37,1.63-0.09,2.02,0.38c0.31,0.37,0.35,0.77,0.12,1.17
					c-0.21,0.38-0.58,0.49-1,0.44c-0.34-0.05-0.66-0.28-1.03-0.19C530.25,260.92,531.66,260.93,532.95,259.82z"/>
				<path class="st2" d="M444.74,264.07c-1.44-1.28-2.97-2.38-5.01-2.42c-0.6,1.26-0.4,2.13,0.69,3.04l0.06-0.06
					c-0.19-0.52-0.79-1.04-0.15-1.59c0.53-0.46,1.17-0.43,1.75-0.04c0.41,0.28,0.77,0.64,0.61,1.2c-0.2,0.72-0.81,0.65-1.37,0.63
					c-0.14,0-0.28,0-0.42,0c-0.03,0.04-0.06,0.08-0.09,0.11C442.35,265.72,443.78,265.39,444.74,264.07z"/>
				<path class="st2" d="M425.02,177.07c0.02-0.22,0.06-0.44-0.07-0.63C424.86,176.66,424.91,176.87,425.02,177.07z"/>
				<path class="st2" d="M440.42,264.69c0.13,0.09,0.26,0.18,0.39,0.27c0.03-0.04,0.06-0.08,0.09-0.11
					c-0.08-0.18-0.25-0.21-0.42-0.21L440.42,264.69z"/>
				<path class="st2" d="M426.96,170.91c0.19-0.14,0.2-0.28,0.01-0.42C426.97,170.63,426.97,170.77,426.96,170.91z"/>
				<path class="st2" d="M534.65,167.53c0.01,0.14,0.02,0.27,0.03,0.41C534.86,167.79,534.85,167.65,534.65,167.53z"/>
				<path class="st2" d="M426.99,170.06c0.03-0.05,0.06-0.1,0.07-0.15c0-0.01-0.04-0.04-0.06-0.06
					C427,169.92,427,169.99,426.99,170.06z"/>
				<path class="st2" d="M535.52,247.5c-0.01,0.07-0.02,0.14-0.02,0.21c0.03-0.05,0.06-0.09,0.08-0.15
					C535.58,247.55,535.54,247.52,535.52,247.5z"/>
				<path class="st2" d="M533.58,166.98c0.08,0.03,0.15,0.07,0.23,0.1C533.73,167.05,533.66,167.02,533.58,166.98z"/>
				<path class="st2" d="M465.56,185.71c-3.3,0-6.55,0.48-9.81,0.99c-2.92,0.46-5.77,1.06-8.46,2.34c-0.59,0.28-0.94,0.56-0.89,1.23
					c0.04,0.63,0.52,0.64,0.96,0.76c2.86,0.76,5.74,0.71,8.66,0.45c2.13-0.19,4.26-0.29,6.36-0.69c3.19-0.6,6.43-1.01,9.33-2.66
					c0.42-0.24,0.7-0.47,0.69-0.94c-0.01-0.55-0.42-0.75-0.9-0.89C469.56,185.73,467.57,185.68,465.56,185.71z"/>
				<path class="st3" d="M508.82,202.64c3.25-0.06,6.47-0.54,9.69-0.9c-2.96-0.36-5.91,0.04-8.86,0.05
					c-1.39,0.43-2.85,0.19-4.27,0.39c-1.51,0.21-3.04,0.32-4.55,0.56C503.5,203.05,506.15,202.61,508.82,202.64z"/>
				<path class="st3" d="M515.18,192.04c1.03-0.29,2.16-0.01,3.14-0.62c-0.91,0-1.82,0-2.74,0c-4.99,0.32-10,0.38-14.96,1.24
					c1.88,0,3.78,0.14,5.65-0.04c1.57-0.15,3.15-0.07,4.71-0.31C512.36,192.1,513.78,192.12,515.18,192.04z"/>
				<path class="st3" d="M489.51,203.96c-5.86-0.11-11.65,0.39-17.44,1.04C474.11,205.44,486.62,204.69,489.51,203.96z"/>
				<path class="st3" d="M473.54,216.32c5.9,0.16,11.79-0.28,17.66-1.09C485.3,215.19,479.42,215.51,473.54,216.32z"/>
				<path class="st3" d="M482.37,226.52c3.1-0.28,6.21-0.4,9.29-0.96c-2.33-0.04-4.66-0.16-6.98,0.07
					c-3.58,0.26-7.17,0.4-10.72,1.02C476.76,226.91,479.56,226.46,482.37,226.52z"/>
				<path class="st3" d="M471.3,194.99c6.23,0.18,12.11-0.39,17.98-1.06C487.29,193.56,475.16,194.29,471.3,194.99z"/>
				<path class="st3" d="M504.58,208.15c4.74-0.14,9.47-0.43,14.16-1.18c-3.05-0.13-6.09,0.06-9.13,0.28
					c-1.4,0.1-2.8,0.15-4.19,0.23c-1.38,0.18-2.76,0.36-4.13,0.54c0,0.04,0,0.08-0.01,0.12
					C502.38,208.15,503.48,208.15,504.58,208.15z"/>
				<path class="st3" d="M472.27,210.39c5.86,0.15,11.68-0.24,17.47-1.08C483.9,209.33,478.06,209.59,472.27,210.39z"/>
				<path class="st3" d="M460.75,201.03c-5.87-0.17-11.69,0.31-17.5,1.09C449.11,202.15,454.95,201.83,460.75,201.03z"/>
				<path class="st3" d="M462.89,222.61c-3.55-0.36-16.04,0.5-17.51,1.02C446.97,223.88,456.13,223.53,462.89,222.61z"/>
				<path class="st3" d="M512.18,197.38c2.02,0.06,3.99-0.45,6-0.67c-1.79-0.24-3.58,0.16-5.37-0.01c-3.9,0.25-7.81,0.45-11.93,0.99
					c0.65,0.45,1.11,0.08,1.54,0.1c2.88,0.14,5.75-0.24,8.63-0.21C511.45,197.57,511.83,197.58,512.18,197.38z"/>
				<path class="st3" d="M445.37,228.59c5.87,0.22,11.69-0.34,17.5-1.06C457.02,227.51,451.18,227.82,445.37,228.59z"/>
				<path class="st3" d="M443.68,207.01c5.81,0.27,11.56-0.37,17.32-1.02C455.2,205.98,449.42,206.22,443.68,207.01z"/>
				<path class="st3" d="M445.71,233.92c5.71,0.11,11.39-0.26,17.04-1.02C457.04,232.89,451.35,233.09,445.71,233.92z"/>
				<path class="st3" d="M443.65,212.41c5.79-0.03,11.57-0.24,17.31-1.03C455.16,211.16,449.4,211.65,443.65,212.41z"/>
				<path class="st3" d="M460.11,195.95c-5.55-0.25-11.05,0.25-16.53,0.95C449.12,196.99,454.63,196.69,460.11,195.95z"/>
				<path class="st3" d="M489,199.08c-5.55-0.1-11.07,0.21-16.57,0.97C477.98,200.22,483.5,199.81,489,199.08z"/>
				<path class="st3" d="M461.84,217.32c-5.55-0.24-11.06,0.29-16.56,0.97C450.82,218.31,456.35,218.12,461.84,217.32z"/>
				<path class="st3" d="M490.6,220.81c0-0.12,0-0.25-0.01-0.37c-1.78,0.29-3.58,0.11-5.37,0.19c-3.71,0.17-7.41,0.47-11.09,1
					c2.17,0,4.34,0.08,6.51-0.02c2.38-0.11,4.76-0.37,7.13-0.56C488.71,220.97,489.65,220.89,490.6,220.81z"/>
				<path class="st3" d="M520.43,228.56c-5.87-0.12-11.71,0.32-17.53,1.06C508.78,229.83,514.61,229.36,520.43,228.56z"/>
				<path class="st3" d="M491.66,230.89c-5.86-0.12-11.69,0.33-17.5,1.05C480.03,232.11,485.86,231.69,491.66,230.89z"/>
				<path class="st3" d="M502.51,213.97c5.85,0.2,11.68-0.34,17.5-1.05C514.16,212.85,508.34,213.2,502.51,213.97z"/>
				<path class="st3" d="M502.93,224.31c5.8,0.1,11.55-0.3,17.28-1.05C514.41,223.09,508.66,223.57,502.93,224.31z"/>
				<path class="st3" d="M519.87,218.27c-5.65,0.03-11.3,0.21-16.91,1.01C508.62,219.53,514.24,218.93,519.87,218.27z"/>
				<path class="st2" d="M426.31,188.47c-0.2,5.24,0.69,10.33,2,15.37c0.28,1.08,0.66,2.15,1.34,3.06c0.23,0.31,0.32,0.88,0.88,0.77
					c0.58-0.11,0.96-0.58,1.02-1.09c0.32-2.75,0.63-5.48,0.33-8.28c-0.2-1.87-0.19-3.78-0.51-5.65c-0.61-3.46-0.96-7-2.75-10.14
					c-0.25-0.44-0.4-1.12-1.07-0.97c-0.75,0.17-0.9,0.9-1.03,1.56C426.18,184.88,426.33,186.68,426.31,188.47z"/>
				<path class="st2" d="M531.65,194.73c0.08-3.97-0.29-7.52-0.89-11.05c-0.18-1.09-0.48-2.19-0.97-3.21
					c-0.23-0.48-0.46-0.99-1.04-1.08c-0.71-0.12-0.74,0.58-0.91,0.97c-0.62,1.46-0.95,3.02-1.02,4.58
					c-0.13,2.84-0.43,5.69-0.23,8.53c0.22,2.96,0.47,5.93,1.09,8.84c0.2,0.94,0.53,1.87,0.99,2.75c0.4,0.77,0.91,0.64,1.34,0.23
					c0.36-0.34,0.69-0.86,0.76-1.35C531.27,200.77,531.87,197.6,531.65,194.73z"/>
				<path class="st2" d="M427.2,171.34c0.02,0.02,0.04,0.05,0.06,0.07c0.01-0.03,0.04-0.06,0.04-0.08c0-0.03-0.04-0.05-0.06-0.07
					C427.23,171.28,427.22,171.31,427.2,171.34z"/>
				<path class="st2" d="M426.08,165.85c-0.04,0.53,0.21,0.84,0.85,0.83c0.69-0.01,1.46-0.69,1.5-1.34
					c0.04-0.65-0.39-0.88-0.89-0.95C426.96,164.3,426.1,165.17,426.08,165.85z"/>
				<path class="st2" d="M529.37,159.04c-0.04,0.67,0.52,0.7,0.92,0.77c0.7,0.13,1.55-0.56,1.59-1.21c0.03-0.58-0.23-0.95-0.83-1
					C530.34,157.54,529.41,158.35,529.37,159.04z"/>
				<path class="st2" d="M528.88,259.78c0.37-0.09,0.68,0.14,1.03,0.19c0.42,0.06,0.79-0.06,1-0.44c0.22-0.4,0.19-0.8-0.12-1.17
					c-0.39-0.47-1.62-0.75-2.02-0.38c-0.55,0.51-0.22,1.01,0.09,1.51c0.05,0.08,0.03,0.2,0.04,0.31
					C528.89,259.8,528.88,259.78,528.88,259.78z"/>
				<path class="st2" d="M440.47,264.63c0.18,0,0.34,0.03,0.42,0.21c0.14,0,0.28-0.01,0.42,0c0.56,0.02,1.16,0.09,1.37-0.63
					c0.16-0.57-0.21-0.92-0.61-1.2c-0.58-0.39-1.21-0.42-1.75,0.04C439.68,263.6,440.29,264.11,440.47,264.63z"/>
			</g>
		</g>
	</g>
</g>
<g>
</g>
<g>
</g>
<g>
</g>
<g>
</g>
<g>
</g>
<g>
</g>
<g>
</g>
<g>
</g>
<g>
</g>
<g>
</g>
<g>
</g>
<g>
</g>
<g>
</g>
<g>
</g>
<g>
</g>
</svg>
