<?xml version="1.0" encoding="UTF-8" standalone="no"?>
<svg
		xmlns:dc="http://purl.org/dc/elements/1.1/"
		xmlns:cc="http://creativecommons.org/ns#"
		xmlns:rdf="http://www.w3.org/1999/02/22-rdf-syntax-ns#"
		xmlns="http://www.w3.org/2000/svg"
		xmlns:sodipodi="http://sodipodi.sourceforge.net/DTD/sodipodi-0.dtd"
		xmlns:inkscape="http://www.inkscape.org/namespaces/inkscape"
		inkscape:version="1.0beta2 (2b71d25, 2019-12-03)"
		height="339.74866"
		width="498.06665"
		sodipodi:docname="sacred-text-search-logo.svg"
		xml:space="preserve"
		viewBox="0 0 498.06665 339.74866"
		y="0px"
		x="0px"
		id="Layer_1"
		version="1.1"><metadata
   id="metadata512"><rdf:RDF><cc:Work
       rdf:about=""><dc:format>image/svg+xml</dc:format><dc:type
		rdf:resource="http://purl.org/dc/dcmitype/StillImage"/><dc:title></dc:title></cc:Work></rdf:RDF></metadata>
	<defs
			id="defs510"><clipPath
   id="clipPath1033"
   clipPathUnits="userSpaceOnUse"><rect
     y="21.241072"
     x="247.54018"
     height="368.4509"
     width="566.97321"
     id="rect1035"
     style="fill:#0000ff;fill-rule:evenodd" /></clipPath>
		
		
	</defs>
	<sodipodi:namedview
			fit-margin-bottom="0"
			fit-margin-right="0"
			fit-margin-left="0"
			fit-margin-top="0"
			inkscape:lockguides="true"
			inkscape:current-layer="g475"
			inkscape:window-maximized="0"
			inkscape:window-y="31"
			inkscape:window-x="1760"
			inkscape:cy="307.85714"
			inkscape:cx="231.75941"
			inkscape:zoom="1.2240437"
			showgrid="false"
			id="namedview508"
			inkscape:window-height="999"
			inkscape:window-width="1395"
			inkscape:pageshadow="2"
			inkscape:pageopacity="0"
			guidetolerance="10"
			gridtolerance="10"
			objecttolerance="10"
			borderopacity="1"
			inkscape:document-rotation="0"
			bordercolor="#666666"
			pagecolor="#ffffff"/>
	<style
			id="style279"
			type="text/css">
	.st0 {
        fill: #ccaa79;
    }

    .st1 {
        fill: #38585f;
    }

    .st2 {
        fill: #800080;
    }

    .st3 {
        fill: #FFFFFF;
    }
</style>
	<g
			transform="translate(-268.15175,-32)"
			id="g475">
	
	<g
			id="g339">
			<g
					id="g319">
				<path
						inkscape:connector-curvature="0"
						class="st1"
						d="m 705.75,200.68 c 0,93.16 -75.52,168.68 -168.68,168.68 -43.37,0 -82.91,-16.36 -112.78,-43.24 14.31,5.25 29.78,8.1 45.92,8.1 73.75,0 133.54,-59.79 133.54,-133.54 0,-73.75 -59.79,-133.54 -133.54,-133.54 -16.13,0 -31.6,2.86 -45.92,8.1 C 454.16,48.36 493.71,32 537.08,32 c 93.16,0 168.67,75.52 168.67,168.68 z"
						id="path315"/>
				<path
						inkscape:connector-curvature="0"
						class="st2"
						d="m 424.29,326.11 c -51.13,-18.72 -87.62,-67.82 -87.62,-125.44 0,-57.62 36.5,-106.72 87.62,-125.44 -34.32,30.88 -55.9,75.64 -55.9,125.44 0,49.8 21.58,94.56 55.9,125.44 z"
						id="path317"/>
			</g>
		<g
				id="g325">
				
					<rect
							x="705.14001"
							y="297.57001"
							transform="matrix(0.6308,-0.776,0.776,0.6308,9.2297,686.0964)"
							class="st1"
							width="40.82"
							height="71.550003"
							id="rect321"/>

			<rect
					x="674.47998"
					y="282.07001"
					transform="matrix(0.6308,-0.776,0.776,0.6308,19.4442,644.064)"
					class="st1"
					width="24.01"
					height="39.07"
					id="rect323"/>
			</g>
		<g
				id="g337">
				<g
						id="g335">
					<g
							id="g329">
						
							<rect
									x="272.17999"
									y="246.69"
									transform="matrix(0.906,-0.4233,0.4233,0.906,-82.8672,151.4413)"
									class="st2"
									width="54.650002"
									height="31.17"
									id="rect327"/>
					</g>
					<g
							id="g333">
						
							<rect
									x="322.13"
									y="236.41"
									transform="matrix(0.906,-0.4233,0.4233,0.906,-72.2681,165.7651)"
									class="st2"
									width="29.84"
									height="18.34"
									id="rect331"/>
					</g>
				</g>
			</g>
		</g>
		<g
				id="g471">
			<g
					id="g469">
				<path
						inkscape:connector-curvature="0"
						class="st0"
						d="m 519.83,179.82 c -3.6,0.32 -7.22,0.2 -10.81,0.58 -1.46,0.16 -2.94,0.06 -4.42,0.19 -2.37,0.22 -4.78,0.13 -7.16,0.27 -4.52,0.27 -9.04,0.42 -13.56,0.67 -2.41,0.13 -4.83,0.25 -7.25,0.35 -5.09,0.2 -10.16,0.57 -15.25,0.71 -2.91,0.08 -5.82,0.25 -8.72,0.42 -4.84,0.29 -9.67,0.56 -14.52,0.6 0.08,0.98 0.15,1.96 0.26,2.93 0.33,2.92 0.69,5.83 1.02,8.75 0.24,2.16 0.39,4.33 0.69,6.47 0.41,2.88 0.71,5.76 1.02,8.65 0.23,2.19 0.53,4.37 0.78,6.56 0.24,2.09 0.46,4.17 0.69,6.26 0.24,2.19 0.45,4.39 0.7,6.58 0.32,2.85 0.69,5.69 0.98,8.55 0.13,1.3 0.3,1.52 1.62,1.28 2.44,-0.43 4.89,-0.86 7.31,-1.39 6.99,-1.54 13.7,-3.82 20.19,-6.82 2.77,-1.28 5.47,-2.68 8.14,-4.14 0.34,-0.19 0.68,-0.37 0.83,-0.76 -2.81,-0.06 -5.61,0.39 -8.42,0.13 3.55,-0.62 7.14,-0.76 10.72,-1.02 0.09,-0.42 0.42,-0.6 0.74,-0.82 1.56,-1.04 3.11,-2.1 4.64,-3.18 0.26,-0.18 0.73,-0.3 0.54,-0.81 -0.94,0.08 -1.89,0.16 -2.83,0.24 -2.38,0.19 -4.75,0.46 -7.13,0.56 -2.16,0.1 -4.34,0.02 -6.51,0.02 3.68,-0.52 7.38,-0.83 11.09,-1 1.79,-0.08 3.59,0.1 5.37,-0.19 0.72,0.02 1.3,-0.17 1.9,-0.66 0.94,-0.78 1.85,-1.61 2.79,-2.38 3.39,-2.79 6.42,-5.95 9.3,-9.24 -1.1,0 -2.2,0 -3.3,0 0,-0.04 0,-0.08 0.01,-0.12 1.38,-0.18 2.76,-0.36 4.13,-0.54 0.05,-0.36 0.2,-0.68 0.45,-0.93 1.16,-1.17 2.01,-2.58 2.95,-3.92 -2.66,-0.03 -5.32,0.41 -7.99,0.1 1.51,-0.24 3.04,-0.35 4.55,-0.56 1.42,-0.2 2.88,0.04 4.27,-0.39 0.08,-0.19 0.15,-0.38 0.25,-0.56 0.71,-1.31 1.73,-2.44 2.28,-3.85 -0.35,0.2 -0.74,0.2 -1.13,0.19 -2.88,-0.03 -5.75,0.35 -8.63,0.21 -0.43,-0.02 -0.89,0.35 -1.54,-0.1 4.12,-0.53 8.03,-0.74 11.93,-0.99 0.79,-1.55 1.57,-3.1 2.36,-4.65 -1.4,0.08 -2.81,0.05 -4.19,0.27 -1.57,0.24 -3.14,0.16 -4.71,0.31 -1.87,0.18 -3.76,0.04 -5.65,0.04 4.96,-0.86 9.97,-0.92 14.96,-1.24 0.68,-1.57 1.42,-3.13 2.03,-4.73 0.87,-2.27 1.87,-4.49 2.23,-6.9 z m -54.27,5.89 c 2.01,-0.03 4,0.02 5.95,0.59 0.47,0.14 0.88,0.33 0.9,0.89 0.01,0.46 -0.27,0.7 -0.69,0.94 -2.9,1.65 -6.14,2.06 -9.33,2.66 -2.1,0.4 -4.24,0.5 -6.36,0.69 -2.92,0.26 -5.8,0.32 -8.66,-0.45 -0.45,-0.12 -0.92,-0.13 -0.96,-0.76 -0.04,-0.67 0.3,-0.95 0.89,-1.23 2.69,-1.28 5.54,-1.88 8.46,-2.34 3.25,-0.51 6.5,-0.99 9.8,-0.99 z m 23.95,18.25 c -2.88,0.73 -15.4,1.48 -17.44,1.04 5.78,-0.65 11.58,-1.15 17.44,-1.04 z m -15.97,12.36 c 5.88,-0.8 11.76,-1.12 17.66,-1.09 -5.87,0.8 -11.76,1.25 -17.66,1.09 z m -2.24,-21.33 c 3.86,-0.71 15.99,-1.43 17.98,-1.06 -5.88,0.68 -11.76,1.24 -17.98,1.06 z m 0.97,15.4 c 5.79,-0.8 11.62,-1.06 17.47,-1.08 -5.79,0.84 -11.61,1.23 -17.47,1.08 z m -11.52,-9.36 c -5.81,0.8 -11.64,1.12 -17.5,1.09 5.81,-0.78 11.64,-1.25 17.5,-1.09 z m 2.14,21.58 c -6.76,0.91 -15.92,1.27 -17.51,1.02 1.47,-0.52 13.96,-1.37 17.51,-1.02 z m -17.52,5.98 c 5.81,-0.76 11.65,-1.07 17.5,-1.06 -5.81,0.72 -11.63,1.28 -17.5,1.06 z m -1.69,-21.58 c 5.75,-0.79 11.52,-1.03 17.32,-1.02 -5.76,0.65 -11.52,1.29 -17.32,1.02 z m 2.03,26.91 c 5.65,-0.84 11.33,-1.04 17.04,-1.02 -5.66,0.77 -11.33,1.14 -17.04,1.02 z m -2.06,-21.51 c 5.74,-0.76 11.5,-1.25 17.31,-1.03 -5.74,0.79 -11.52,1 -17.31,1.03 z m 16.46,-16.46 c -5.48,0.75 -10.99,1.04 -16.53,0.95 5.49,-0.7 10.98,-1.2 16.53,-0.95 z m 28.89,3.13 c -5.5,0.73 -11.02,1.14 -16.57,0.97 5.5,-0.76 11.03,-1.07 16.57,-0.97 z m -27.16,18.24 c -5.49,0.81 -11.02,0.99 -16.56,0.97 5.5,-0.68 11.01,-1.21 16.56,-0.97 z"
						id="path341"/>
				<path
						inkscape:connector-curvature="0"
						class="st0"
						d="m 482.37,226.52 c -0.15,0.39 -0.49,0.57 -0.83,0.76 -2.67,1.46 -5.37,2.86 -8.14,4.14 -6.49,3 -13.21,5.28 -20.19,6.82 -2.43,0.54 -4.87,0.96 -7.31,1.39 -1.32,0.23 -1.49,0.01 -1.62,-1.28 -0.29,-2.85 -0.66,-5.7 -0.98,-8.55 -0.25,-2.19 -0.46,-4.38 -0.7,-6.58 -0.22,-2.09 -0.45,-4.17 -0.69,-6.26 -0.25,-2.19 -0.55,-4.37 -0.78,-6.56 -0.31,-2.89 -0.61,-5.77 -1.02,-8.65 -0.3,-2.15 -0.45,-4.32 -0.69,-6.47 -0.33,-2.92 -0.69,-5.83 -1.02,-8.75 -0.11,-0.97 -0.17,-1.95 -0.26,-2.93 -0.28,-2.42 -0.57,-4.83 -0.84,-7.25 -0.03,-0.3 -0.08,-0.57 -0.45,-0.57 -0.63,-0.01 -1.22,-0.32 -1.86,-0.21 0.14,1.21 0.27,2.43 0.43,3.64 0.69,5.19 1.43,10.38 2.08,15.58 0.6,4.82 1.17,9.65 1.48,14.5 0.28,4.41 0.55,8.82 0.61,13.24 0.05,3.4 -0.18,6.8 -0.41,10.2 -0.15,2.26 -0.47,4.52 -0.8,6.76 -0.39,2.63 -0.83,5.26 -1.53,7.82 -0.5,1.84 -0.93,3.72 -1.7,5.48 0.04,0.42 0.42,0.48 0.7,0.63 3.26,0.71 6.29,-0.04 9.21,-1.45 0.46,-0.18 0.68,-0.38 0.59,-1.01 -0.28,-1.98 -0.41,-3.97 -0.62,-5.96 -0.04,-0.33 0.08,-0.43 0.34,-0.52 0.37,-0.14 0.76,-0.13 1.14,-0.16 4.48,-0.27 8.96,-0.56 13.44,-0.83 2.66,-0.16 5.33,-0.28 7.99,-0.45 4.17,-0.26 8.33,-0.59 12.49,-0.8 2.42,-0.13 4.83,-0.28 7.25,-0.44 4.58,-0.31 9.17,-0.58 13.76,-0.85 2.87,-0.17 5.75,-0.27 8.62,-0.45 3.88,-0.25 7.76,-0.56 11.64,-0.81 1.05,-0.07 2.11,-0.03 3.17,-0.04 -0.36,-2.26 -0.22,-4.54 -0.37,-6.82 -0.2,-3.25 -0.31,-6.51 -0.44,-9.77 -0.14,-3.36 -0.27,-6.72 -0.42,-10.09 -0.15,-3.36 -0.29,-6.72 -0.43,-10.09 -0.13,-3.26 -0.34,-6.51 -0.41,-9.77 -0.1,-4.46 -0.46,-8.9 -0.47,-13.36 -0.84,0.02 -1.68,0.03 -2.52,0.05 -0.36,2.41 -1.36,4.63 -2.22,6.88 -0.61,1.6 -1.35,3.16 -2.03,4.73 0.91,0 1.82,0 2.74,0 -0.98,0.6 -2.11,0.32 -3.14,0.62 -0.79,1.55 -1.57,3.1 -2.36,4.65 1.79,0.17 3.58,-0.23 5.37,0.01 -2.01,0.22 -3.98,0.74 -6,0.67 -0.55,1.41 -1.57,2.54 -2.28,3.85 -0.1,0.18 -0.17,0.37 -0.25,0.56 2.95,-0.01 5.9,-0.41 8.86,-0.05 -3.23,0.37 -6.44,0.84 -9.69,0.9 -0.94,1.34 -1.79,2.74 -2.95,3.92 -0.25,0.25 -0.4,0.57 -0.45,0.93 1.4,-0.07 2.8,-0.13 4.19,-0.23 3.04,-0.22 6.08,-0.42 9.13,-0.28 -4.69,0.74 -9.42,1.03 -14.16,1.18 -2.88,3.3 -5.91,6.45 -9.3,9.24 -0.94,0.78 -1.84,1.61 -2.79,2.38 -0.6,0.5 -1.18,0.68 -1.9,0.66 0,0.12 0,0.25 0.01,0.37 0.19,0.51 -0.28,0.63 -0.54,0.81 -1.53,1.08 -3.08,2.13 -4.64,3.18 -0.33,0.22 -0.66,0.4 -0.74,0.82 2.33,-0.24 4.65,-0.11 6.98,-0.07 -3.07,0.59 -6.18,0.71 -9.28,0.99 z m 38.06,2.04 c -5.81,0.79 -11.65,1.27 -17.53,1.06 5.82,-0.74 11.66,-1.18 17.53,-1.06 z m -28.77,2.33 c -5.81,0.81 -11.64,1.22 -17.5,1.05 5.81,-0.72 11.64,-1.17 17.5,-1.05 z m 10.85,-16.92 c 5.82,-0.77 11.65,-1.12 17.5,-1.05 -5.82,0.72 -11.65,1.26 -17.5,1.05 z m 0.42,10.34 c 5.73,-0.74 11.48,-1.23 17.28,-1.05 -5.73,0.75 -11.48,1.16 -17.28,1.05 z m 16.94,-6.04 c -5.62,0.67 -11.25,1.27 -16.91,1.01 5.6,-0.81 11.25,-0.98 16.91,-1.01 z"
						id="path343"/>
				<path
						inkscape:connector-curvature="0"
						class="st0"
						d="m 435.15,252.79 c 0.77,-1.76 1.19,-3.64 1.7,-5.48 0.7,-2.56 1.14,-5.19 1.53,-7.82 0.33,-2.25 0.65,-4.5 0.8,-6.76 0.23,-3.39 0.45,-6.8 0.41,-10.2 -0.06,-4.41 -0.33,-8.83 -0.61,-13.24 -0.31,-4.85 -0.88,-9.68 -1.48,-14.5 -0.65,-5.2 -1.39,-10.39 -2.08,-15.58 -0.16,-1.21 -0.29,-2.43 -0.43,-3.64 -0.29,0 -0.57,-0.01 -0.86,-0.01 -0.63,0.03 -1.25,0.06 -1.88,0.11 -2.59,0.21 -4.91,1.23 -7.19,2.39 -0.67,0.57 -1.32,1.15 -2.01,1.69 -0.59,0.46 -0.64,1.06 -0.52,1.71 0.82,4.68 1.66,9.36 2.47,14.05 0.79,4.51 1.62,9.02 2.31,13.54 0.88,5.7 1.94,11.37 2.95,17.06 0.6,3.37 1.1,6.76 1.72,10.13 0.98,5.33 1.86,10.68 2.77,16.02 0.05,0.27 0.09,0.49 0.4,0.53 z m -8.84,-64.32 c 0.02,-1.79 -0.13,-3.59 0.21,-5.36 0.12,-0.65 0.28,-1.38 1.03,-1.56 0.67,-0.16 0.82,0.53 1.07,0.97 1.79,3.14 2.14,6.68 2.75,10.14 0.33,1.86 0.31,3.77 0.51,5.65 0.31,2.8 0,5.53 -0.33,8.28 -0.06,0.51 -0.44,0.98 -1.02,1.09 -0.57,0.11 -0.65,-0.46 -0.88,-0.77 -0.68,-0.91 -1.06,-1.99 -1.34,-3.06 -1.32,-5.04 -2.21,-10.14 -2,-15.38 z"
						id="path345"/>
				<path
						inkscape:connector-curvature="0"
						class="st0"
						d="m 522.35,179.77 c 0.01,4.46 0.37,8.9 0.47,13.36 0.08,3.26 0.28,6.51 0.41,9.77 0.14,3.36 0.28,6.72 0.43,10.09 0.15,3.36 0.28,6.72 0.42,10.09 0.13,3.26 0.24,6.52 0.44,9.77 0.14,2.27 0,4.56 0.37,6.82 -0.09,2.2 0.35,4.39 0.21,6.59 -0.04,0.58 0.26,0.84 0.81,0.84 1.38,-3.63 2.99,-7.16 4.09,-10.9 1.71,-5.83 2.84,-11.77 3.52,-17.78 0.47,-4.14 0.69,-8.3 0.86,-12.46 0.15,-3.61 -0.03,-7.24 0.23,-10.86 0.17,-2.34 0.1,-4.7 0.16,-7.05 0.12,-4.88 0.42,-9.75 0.48,-14.63 0.01,-0.57 0.06,-1.12 0.22,-1.66 -0.24,-0.24 -0.69,-0.28 -0.72,-0.74 -0.22,0.23 -0.44,0.12 -0.67,0.02 -2.81,-1.2 -5.73,-1.53 -8.74,-1.19 -0.79,0.15 -1.58,0.3 -2.37,0.43 -0.74,0.12 -1.11,0.5 -1.04,1.29 0.23,2.73 0.1,5.48 0.42,8.2 z m 9.3,14.96 c 0.22,2.86 -0.38,6.04 -0.87,9.22 -0.07,0.48 -0.4,1 -0.76,1.35 -0.43,0.41 -0.94,0.54 -1.34,-0.23 -0.46,-0.88 -0.79,-1.82 -0.99,-2.75 -0.62,-2.91 -0.87,-5.88 -1.09,-8.84 -0.21,-2.84 0.1,-5.69 0.23,-8.53 0.07,-1.56 0.4,-3.12 1.02,-4.58 0.17,-0.39 0.2,-1.09 0.91,-0.97 0.58,0.1 0.81,0.61 1.04,1.08 0.48,1.02 0.79,2.12 0.97,3.21 0.59,3.52 0.96,7.08 0.88,11.04 z"
						id="path347"/>
				<path
						inkscape:connector-curvature="0"
						class="st0"
						d="m 535.47,171.74 c -0.16,0.54 -0.21,1.09 -0.22,1.66 -0.06,4.88 -0.36,9.75 -0.48,14.63 -0.06,2.35 0.01,4.71 -0.16,7.05 -0.26,3.62 -0.08,7.24 -0.23,10.86 -0.17,4.16 -0.39,8.33 -0.86,12.46 -0.68,6.01 -1.81,11.95 -3.52,17.78 -1.1,3.75 -2.71,7.28 -4.09,10.9 0.03,0.08 0.06,0.17 0.09,0.25 0.36,-0.15 0.69,0.05 1.02,0.11 2.86,0.56 5.71,0.86 8.46,-0.49 0.52,-0.18 0.62,-0.57 0.63,-1.09 0.05,-3.84 0.15,-7.67 0.2,-11.51 0.08,-6.06 0.16,-12.12 0.29,-18.17 0.08,-3.84 -0.05,-7.68 0.18,-11.51 0.29,-4.93 -0.03,-9.87 0.22,-14.79 0.26,-5.14 0.02,-10.29 0.21,-15.42 0.05,-1.44 -0.45,-2.26 -1.74,-2.72 z"
						id="path349"/>
				<path
						inkscape:connector-curvature="0"
						class="st0"
						d="m 535.48,246.96 c -2.75,1.35 -5.6,1.05 -8.46,0.49 -0.34,-0.07 -0.66,-0.26 -1.02,-0.11 0.05,0.69 0.1,1.37 0.15,2.06 0.31,0 0.64,0.04 0.94,-0.01 2.58,-0.44 4.85,0.32 6.95,1.74 0.73,0.03 1.04,-0.34 1.1,-1.06 0.06,-0.79 0.23,-1.58 0.35,-2.36 0.01,-0.07 0.02,-0.14 0.02,-0.21 0,-0.18 -0.01,-0.36 -0.03,-0.54 z"
						id="path351"/>
				<path
						inkscape:connector-curvature="0"
						class="st0"
						d="m 525.34,169.84 c 3.01,-0.34 5.94,-0.01 8.74,1.19 0.23,0.1 0.45,0.21 0.67,-0.02 -0.03,-1.02 -0.05,-2.05 -0.08,-3.07 -0.01,-0.14 -0.02,-0.27 -0.03,-0.41 -0.23,-0.24 -0.5,-0.41 -0.84,-0.44 -0.08,-0.03 -0.15,-0.07 -0.23,-0.1 -0.09,-0.03 -0.17,-0.05 -0.26,-0.08 -1.26,1.49 -5.53,2.41 -7.78,1.68 -0.14,0.4 -0.24,0.81 -0.19,1.25 z"
						id="path353"/>
				<path
						inkscape:connector-curvature="0"
						class="st0"
						d="m 533.15,166.46 c -0.09,-1.41 -0.17,-2.82 -0.26,-4.22 -1.13,0.23 -2.26,0.26 -3.38,-0.02 -0.43,1.27 -0.86,2.54 -1.3,3.81 1.16,0.15 2.32,0.31 3.49,0.45 0.48,0.05 0.97,0.47 1.45,-0.02 z"
						id="path355"/>
				<path
						inkscape:connector-curvature="0"
						class="st0"
						d="m 532.65,255.74 c 0.25,-1.32 0.5,-2.64 0.75,-3.96 -0.06,-0.31 -0.24,-0.54 -0.57,-0.45 -1.48,0.36 -2.96,0.13 -4.44,0.01 0.3,1.47 0.61,2.94 0.91,4.41 0.48,-0.41 1.06,-0.4 1.65,-0.43 0.64,-0.05 1.09,0.48 1.7,0.42 z"
						id="path357"/>
				<path
						inkscape:connector-curvature="0"
						class="st0"
						d="m 438.74,256.6 c 0.52,1.33 1.04,2.67 1.57,4 1.08,-0.37 2.2,-0.49 3.34,-0.42 0.03,-1.09 0.06,-2.19 0.08,-3.28 0.04,-1.03 -0.47,-1.08 -1.32,-0.87 -1.2,0.31 -2.42,0.57 -3.67,0.57 z"
						id="path359"/>
				<path
						inkscape:connector-curvature="0"
						class="st0"
						d="m 427.06,168.98 c -0.02,0.29 -0.04,0.58 -0.06,0.87 0.02,0.02 0.07,0.05 0.06,0.06 -0.02,0.05 -0.05,0.1 -0.07,0.15 -0.01,0.14 -0.01,0.28 -0.02,0.43 0.19,0.14 0.18,0.28 -0.01,0.42 -0.05,0.79 -0.09,1.58 -0.14,2.37 1.67,-0.23 3.33,-0.45 5,-0.68 -0.5,-1.41 -1,-2.82 -1.5,-4.23 -1.08,0.26 -2,1.32 -3.26,0.61 z m 0.14,2.36 c 0.01,-0.03 0.03,-0.06 0.04,-0.08 0.02,0.02 0.05,0.05 0.06,0.07 0,0.03 -0.03,0.06 -0.04,0.08 -0.02,-0.03 -0.04,-0.05 -0.06,-0.07 z"
						id="path361"/>
				<path
						inkscape:connector-curvature="0"
						class="st0"
						d="m 533.15,166.46 c -0.48,0.49 -0.97,0.07 -1.46,0.01 -1.16,-0.14 -2.32,-0.3 -3.49,-0.45 -0.1,0.02 -0.2,0.06 -0.31,0.07 -2.23,0.2 -2.23,0.2 -2.36,2.5 2.25,0.73 6.52,-0.19 7.78,-1.68 -0.04,-0.15 -0.1,-0.3 -0.16,-0.45 z"
						id="path363"/>
				<path
						inkscape:connector-curvature="0"
						class="st0"
						d="m 431.82,172.6 c -1.67,0.23 -3.33,0.45 -5,0.68 -0.19,0.08 -0.38,0.16 -0.57,0.23 -1.67,0.55 -1.67,0.55 -1.39,2.28 0.51,0.72 1.17,0.6 1.88,0.38 2.13,-0.65 4,-1.72 5.5,-3.4 -0.14,-0.07 -0.28,-0.12 -0.42,-0.17 z"
						id="path365"/>
				<path
						inkscape:connector-curvature="0"
						class="st0"
						d="m 432.24,172.76 c -1.5,1.68 -3.37,2.75 -5.5,3.4 -0.7,0.22 -1.37,0.34 -1.88,-0.38 0.03,0.22 0.05,0.44 0.08,0.66 0.14,0.2 0.1,0.42 0.07,0.63 0.01,0.33 0.03,0.66 0.04,0.99 2.27,-1.16 4.59,-2.19 7.19,-2.39 0.63,-0.05 1.25,-0.07 1.88,-0.11 -0.04,-0.8 -0.39,-1.52 -0.6,-2.28 -0.19,-0.68 -0.78,-0.51 -1.28,-0.52 z"
						id="path367"/>
				<path
						inkscape:connector-curvature="0"
						class="st0"
						d="m 445.06,251.97 c -2.92,1.42 -5.95,2.17 -9.21,1.45 0.14,0.63 0.28,1.26 0.41,1.89 2.6,-1.15 5.18,-1.38 7.68,0.26 0.98,-0.12 1.36,-0.66 1.22,-1.64 -0.09,-0.64 -0.07,-1.3 -0.1,-1.96 z"
						id="path369"/>
				<path
						inkscape:connector-curvature="0"
						class="st0"
						d="m 528.39,251.33 c 1.48,0.12 2.96,0.35 4.44,-0.01 0.33,-0.08 0.51,0.14 0.57,0.45 0.13,-0.3 0.34,-0.53 0.65,-0.65 -2.11,-1.41 -4.38,-2.18 -6.95,-1.74 -0.31,0.05 -0.63,0.01 -0.94,0.01 -0.05,1.76 -0.03,1.78 2.23,1.94 z"
						id="path371"/>
				<path
						inkscape:connector-curvature="0"
						class="st0"
						d="m 443.95,255.58 c -2.51,-1.65 -5.08,-1.42 -7.68,-0.26 -0.07,0.96 0.33,1.43 1.33,1.32 0.38,-0.04 0.76,-0.02 1.14,-0.03 1.25,-0.01 2.47,-0.26 3.67,-0.57 0.85,-0.21 1.36,-0.16 1.32,0.87 0.07,-0.45 0.14,-0.89 0.22,-1.33 z"
						id="path373"/>
				<path
						inkscape:connector-curvature="0"
						class="st0"
						d="m 532.65,255.74 c -0.61,0.06 -1.06,-0.46 -1.69,-0.43 -0.6,0.03 -1.17,0.03 -1.65,0.43 -0.32,0.24 -0.68,0.44 -0.83,0.85 2.02,0.34 3.5,1.43 4.47,3.23 1.04,-1.03 1.13,-2.22 0.25,-3.34 -0.2,-0.24 -0.51,-0.39 -0.55,-0.74 z"
						id="path375"/>
				<path
						inkscape:connector-curvature="0"
						class="st0"
						d="m 443.64,260.19 c -1.14,-0.07 -2.25,0.05 -3.34,0.42 -0.01,0.45 -0.5,0.63 -0.58,1.04 2.04,0.05 3.57,1.14 5.01,2.42 0.84,-0.85 0.44,-2.55 -0.37,-3.17 -0.26,-0.21 -0.62,-0.33 -0.72,-0.71 z"
						id="path377"/>
				<path
						inkscape:connector-curvature="0"
						class="st0"
						d="m 529.51,162.21 c 1.13,0.29 2.25,0.25 3.38,0.02 0.38,-0.49 0.96,-0.79 1.22,-1.39 0.46,-1.05 0.24,-1.97 -0.74,-2.86 -0.26,0.92 -0.82,1.6 -1.51,2.26 -0.74,0.69 -1.83,0.65 -2.53,1.36 0.06,0.2 0.12,0.41 0.18,0.61 z"
						id="path379"/>
				<path
						inkscape:connector-curvature="0"
						class="st0"
						d="m 465.56,185.71 c -3.3,0 -6.55,0.48 -9.81,0.99 -2.92,0.46 -5.77,1.06 -8.46,2.34 -0.59,0.28 -0.94,0.56 -0.89,1.23 0.04,0.63 0.52,0.64 0.96,0.76 2.86,0.76 5.74,0.71 8.66,0.45 2.13,-0.19 4.26,-0.29 6.36,-0.69 3.19,-0.6 6.43,-1.01 9.33,-2.66 0.42,-0.24 0.7,-0.47 0.69,-0.94 -0.01,-0.55 -0.42,-0.75 -0.9,-0.89 -1.94,-0.57 -3.93,-0.62 -5.94,-0.59 z"
						id="path405"/>
				<path
						inkscape:connector-curvature="0"
						class="st3"
						d="m 508.82,202.64 c 3.25,-0.06 6.47,-0.54 9.69,-0.9 -2.96,-0.36 -5.91,0.04 -8.86,0.05 -1.39,0.43 -2.85,0.19 -4.27,0.39 -1.51,0.21 -3.04,0.32 -4.55,0.56 2.67,0.31 5.32,-0.13 7.99,-0.1 z"
						id="path407"/>
				<path
						inkscape:connector-curvature="0"
						class="st0"
						d="m 515.18,192.04 c 1.03,-0.29 2.16,-0.01 3.14,-0.62 -0.91,0 -1.82,0 -2.74,0 -4.99,0.32 -10,0.38 -14.96,1.24 1.88,0 3.78,0.14 5.65,-0.04 1.57,-0.15 3.15,-0.07 4.71,-0.31 1.38,-0.21 2.8,-0.19 4.2,-0.27 z"
						id="path409"/>
				<path
						inkscape:connector-curvature="0"
						class="st0"
						d="m 489.51,203.96 c -5.86,-0.11 -11.65,0.39 -17.44,1.04 2.04,0.44 14.55,-0.31 17.44,-1.04 z"
						id="path411"/>
				<path
						inkscape:connector-curvature="0"
						class="st3"
						d="m 504.58,208.15 c 4.74,-0.14 9.47,-0.43 14.16,-1.18 -3.05,-0.13 -6.09,0.06 -9.13,0.28 -1.4,0.1 -2.8,0.15 -4.19,0.23 -1.38,0.18 -2.76,0.36 -4.13,0.54 0,0.04 0,0.08 -0.01,0.12 1.1,0.01 2.2,0.01 3.3,0.01 z"
						id="path419"/>
				<path
						inkscape:connector-curvature="0"
						class="st3"
						d="m 472.27,210.39 c 5.86,0.15 11.68,-0.24 17.47,-1.08 -5.84,0.02 -11.68,0.28 -17.47,1.08 z"
						id="path421"/>
				<path
						inkscape:connector-curvature="0"
						class="st3"
						d="m 460.75,201.03 c -5.87,-0.17 -11.69,0.31 -17.5,1.09 5.86,0.03 11.7,-0.29 17.5,-1.09 z"
						id="path423"/>
				<path
						inkscape:connector-curvature="0"
						class="st3"
						d="m 443.65,212.41 c 5.79,-0.03 11.57,-0.24 17.31,-1.03 -5.8,-0.22 -11.56,0.27 -17.31,1.03 z"
						id="path435"/>
				<path
						inkscape:connector-curvature="0"
						class="st3"
						d="m 502.93,224.31 c 5.8,0.1 11.55,-0.3 17.28,-1.05 -5.8,-0.17 -11.55,0.31 -17.28,1.05 z"
						id="path451"/>
				<path
						inkscape:connector-curvature="0"
						class="st0"
						d="m 426.31,188.47 c -0.2,5.24 0.69,10.33 2,15.37 0.28,1.08 0.66,2.15 1.34,3.06 0.23,0.31 0.32,0.88 0.88,0.77 0.58,-0.11 0.96,-0.58 1.02,-1.09 0.32,-2.75 0.63,-5.48 0.33,-8.28 -0.2,-1.87 -0.19,-3.78 -0.51,-5.65 -0.61,-3.46 -0.96,-7 -2.75,-10.14 -0.25,-0.44 -0.4,-1.12 -1.07,-0.97 -0.75,0.17 -0.9,0.9 -1.03,1.56 -0.34,1.78 -0.19,3.58 -0.21,5.37 z"
						id="path455"/>
				<path
						inkscape:connector-curvature="0"
						class="st0"
						d="m 531.65,194.73 c 0.08,-3.97 -0.29,-7.52 -0.89,-11.05 -0.18,-1.09 -0.48,-2.19 -0.97,-3.21 -0.23,-0.48 -0.46,-0.99 -1.04,-1.08 -0.71,-0.12 -0.74,0.58 -0.91,0.97 -0.62,1.46 -0.95,3.02 -1.02,4.58 -0.13,2.84 -0.43,5.69 -0.23,8.53 0.22,2.96 0.47,5.93 1.09,8.84 0.2,0.94 0.53,1.87 0.99,2.75 0.4,0.77 0.91,0.64 1.34,0.23 0.36,-0.34 0.69,-0.86 0.76,-1.35 0.5,-3.17 1.1,-6.34 0.88,-9.21 z"
						id="path457"/>
				<path
						inkscape:connector-curvature="0"
						class="st2"
						d="m 427.2,171.34 c 0.02,0.02 0.04,0.05 0.06,0.07 0.01,-0.03 0.04,-0.06 0.04,-0.08 0,-0.03 -0.04,-0.05 -0.06,-0.07 -0.01,0.02 -0.02,0.05 -0.04,0.08 z"
						id="path459"/>
			</g>
		</g>
</g>
	<g
			transform="translate(-268.15175,-32)"
			id="g477">
</g>
	<g
			transform="translate(-268.15175,-32)"
			id="g479">
</g>
	<g
			transform="translate(-268.15175,-32)"
			id="g481">
</g>
	<g
			transform="translate(-268.15175,-32)"
			id="g483">
</g>
	<g
			transform="translate(-268.15175,-32)"
			id="g485">
</g>
	<g
			transform="translate(-268.15175,-32)"
			id="g487">
</g>
	<g
			transform="translate(-268.15175,-32)"
			id="g489">
</g>
	<g
			transform="translate(-268.15175,-32)"
			id="g491">
</g>
	<g
			transform="translate(-268.15175,-32)"
			id="g493">
</g>
	<g
			transform="translate(-268.15175,-32)"
			id="g495">
</g>
	<g
			transform="translate(-268.15175,-32)"
			id="g497">
</g>
	<g
			transform="translate(-268.15175,-32)"
			id="g499">
</g>
	<g
			transform="translate(-268.15175,-32)"
			id="g501">
</g>
	<g
			transform="translate(-268.15175,-32)"
			id="g503">
</g>
	<g
			transform="translate(-268.15175,-32)"
			id="g505">
</g>
</svg>
