<?xml version="1.0" encoding="UTF-8" standalone="no"?>
<svg
		xmlns:dc="http://purl.org/dc/elements/1.1/"
		xmlns:cc="http://creativecommons.org/ns#"
		xmlns:rdf="http://www.w3.org/1999/02/22-rdf-syntax-ns#"
		xmlns="http://www.w3.org/2000/svg"
		xmlns:sodipodi="http://sodipodi.sourceforge.net/DTD/sodipodi-0.dtd"
		xmlns:inkscape="http://www.inkscape.org/namespaces/inkscape"
		height="54.77"
		width="851.25"
		viewBox="0 0 851.25 54.77"
		y="0px"
		x="0px"
		id="Layer_1">
	<metadata
			id="metadata2523">
		<rdf:RDF>
			<cc:Work
					rdf:about="">
				<dc:format>image/svg+xml</dc:format>
				<dc:type
						rdf:resource="http://purl.org/dc/dcmitype/StillImage"/>
				<dc:title></dc:title>
			</cc:Work>
		</rdf:RDF>
	</metadata>
	<defs
			id="defs2521">


	</defs>
	<sodipodi:namedview
			inkscape:current-layer="Layer_1"
			inkscape:window-maximized="0"
			inkscape:window-y="60"
			inkscape:window-x="1973"
			inkscape:cy="-180.81"
			inkscape:cx="418.75"
			inkscape:zoom="0.485"
			fit-margin-bottom="0"
			fit-margin-right="0"
			fit-margin-left="0"
			fit-margin-top="0"
			showgrid="false"
			id="namedview2519"
			inkscape:window-height="480"
			inkscape:window-width="655"
			inkscape:pageshadow="2"
			inkscape:pageopacity="0"
			guidetolerance="10"
			gridtolerance="10"
			objecttolerance="10"
			borderopacity="1"
			inkscape:document-rotation="0"
			bordercolor="#666666"
			pagecolor="#ffffff"/>
	<g
			style="fill:#800080"
			transform="translate(-81.25,-455.31)"
			id="g2324">
		<path
				style="fill:#800080"
				class="st0"
				d="m 91.37,508.79 c -2.46,-0.83 -4.5,-1.86 -6.13,-3.06 -1.67,-1.16 -3.02,-2.32 -3.99,-3.48 l 2.32,-2.13 c 3.81,4.41 9.38,6.68 16.71,6.78 3.39,0 6.27,-0.51 8.54,-1.48 2.27,-0.98 3.95,-2.23 5.11,-3.85 1.16,-1.58 1.72,-3.29 1.72,-5.2 0,-2.14 -0.7,-3.9 -2.14,-5.29 -1.44,-1.39 -3.3,-2.6 -5.57,-3.57 -2.27,-0.97 -4.73,-1.86 -7.38,-2.74 -5.62,-1.86 -9.75,-3.67 -12.39,-5.43 -3.85,-2.55 -5.8,-5.94 -5.8,-10.17 0,-4.04 1.86,-7.38 5.62,-9.98 3.76,-2.55 8.54,-3.85 14.44,-3.85 2.74,0 5.25,0.42 7.57,1.25 2.32,0.88 4.32,1.86 5.99,3.02 1.67,1.16 2.92,2.27 3.81,3.25 l -2.37,2.14 -1.02,-0.97 c -0.7,-0.7 -1.67,-1.44 -2.92,-2.27 -1.3,-0.84 -2.88,-1.58 -4.69,-2.27 -1.86,-0.65 -3.95,-0.98 -6.22,-0.98 -4.18,0 -7.47,0.79 -9.93,2.41 -2.46,1.63 -3.71,3.62 -3.71,5.94 0,2.23 0.74,4.04 2.18,5.48 1.44,1.44 3.34,2.65 5.66,3.62 2.27,0.97 4.73,1.9 7.38,2.79 5.62,1.81 9.7,3.62 12.3,5.34 3.85,2.51 5.76,5.9 5.76,10.12 0,2.79 -0.93,5.38 -2.79,7.75 -1.9,2.41 -4.5,4.36 -7.8,5.85 -3.3,1.53 -7.15,2.27 -11.51,2.27 -3.41,-0.04 -6.29,-0.46 -8.75,-1.29 z"
				id="path2292"
		/>
		<path
				style="fill:#800080"
				class="st0"
				d="m 149.58,456.48 h 4.27 l 23.63,52.64 h -51.57 z m 0,6.96 -19.08,42.52 h 38.8 z"
				id="path2294"
		/>
		<path
				style="fill:#800080"
				class="st0"
				d="m 190.99,506.33 c -4.08,-2.46 -7.33,-5.76 -9.79,-9.89 -2.46,-4.13 -3.71,-8.73 -3.71,-13.74 0,-5.06 1.25,-9.66 3.71,-13.79 2.46,-4.13 5.71,-7.47 9.79,-9.93 4.04,-2.46 8.49,-3.67 13.32,-3.67 3.39,0 6.59,0.6 9.61,1.81 3.02,1.25 5.76,2.97 8.17,5.15 l -3.2,3.2 c -3.76,-4.69 -8.63,-7.01 -14.58,-7.01 -3.95,0 -7.38,1.07 -10.4,3.16 -3.02,2.09 -5.34,4.97 -7.06,8.59 -1.72,3.67 -2.55,7.8 -2.55,12.49 0,4.64 0.84,8.77 2.55,12.44 1.67,3.67 3.99,6.5 7.01,8.59 3.02,2.09 6.5,3.16 10.44,3.16 5.99,0 10.86,-2.32 14.58,-7.01 l 3.2,3.2 c -2.41,2.18 -5.15,3.9 -8.17,5.11 -3.02,1.25 -6.22,1.86 -9.61,1.86 -4.81,-0.01 -9.27,-1.26 -13.31,-3.72 z"
				id="path2296"
		/>
		<path
				style="fill:#800080"
				class="st0"
				d="m 265.27,509.11 -15.18,-24.74 h -14.71 v 24.74 h -6.31 v -52.64 h 23.12 c 3.3,0 6.27,0.6 9,1.76 2.74,1.21 4.87,2.83 6.5,4.92 1.62,2.09 2.41,4.5 2.41,7.24 0,3.43 -1.21,6.36 -3.67,8.73 -2.46,2.37 -5.62,3.99 -9.52,4.78 l 15.5,25.2 h -7.14 z m -5.2,-30.82 c 2.14,-1.95 3.2,-4.59 3.2,-7.89 0,-3.3 -1.07,-5.9 -3.2,-7.84 -2.13,-1.95 -4.78,-2.92 -7.89,-2.92 h -16.8 v 21.58 h 16.8 c 3.11,0 5.75,-0.98 7.89,-2.93 z"
				id="path2298"
		/>
		<path
				style="fill:#800080"
				class="st0"
				d="m 279.38,509.11 v -52.64 h 37.88 v 3.16 H 285.7 v 21.58 h 28.41 v 3.16 H 285.7 v 21.58 h 32.63 v 3.16 z"
				id="path2300"
		/>
		<path
				style="fill:#800080"
				class="st0"
				d="m 325.3,509.11 v -52.64 h 17.36 c 4.87,0 9.33,1.16 13.41,3.43 4.04,2.27 7.29,5.43 9.75,9.38 2.46,3.95 3.67,8.45 3.67,13.51 0,5.06 -1.21,9.56 -3.67,13.51 -2.46,3.95 -5.71,7.1 -9.75,9.38 -4.08,2.27 -8.54,3.43 -13.41,3.43 z m 31.93,-9.61 c 3.62,-4.18 5.43,-9.75 5.43,-16.71 0,-6.96 -1.86,-12.58 -5.57,-16.8 -3.71,-4.22 -8.54,-6.36 -14.44,-6.36 H 331.6 v 46.32 h 11.05 c 6.09,-0.09 10.91,-2.22 14.58,-6.45 z"
				id="path2302"
		/>
		<path
				style="fill:#800080"
				class="st0"
				d="m 420.92,509.11 v -49.48 h -18.94 v -3.16 h 44.19 v 3.16 h -18.94 v 49.48 z"
				id="path2304"
		/>
		<path
				style="fill:#800080"
				class="st0"
				d="m 453.14,509.11 v -52.64 h 37.88 v 3.16 h -31.56 v 21.58 h 28.41 v 3.16 h -28.41 v 21.58 h 32.63 v 3.16 z"
				id="path2306"
		/>
		<path
				style="fill:#800080"
				class="st0"
				d="m 542.22,509.11 -18.89,-23.91 -20.47,23.91 h -3.81 l 22.47,-26.18 -20.89,-26.46 h 7.33 l 17.36,22 18.89,-22 h 3.81 l -20.84,24.28 22.37,28.36 z"
				id="path2308"
		/>
		<path
				style="fill:#800080"
				class="st0"
				d="M 573.14,509.11 V 459.63 H 554.2 v -3.16 h 44.19 v 3.16 h -18.94 v 49.48 z"
				id="path2310"
		/>
		<path
				style="fill:#800080"
				class="st0"
				d="m 641.01,508.79 c -2.46,-0.83 -4.5,-1.86 -6.13,-3.06 -1.67,-1.16 -3.02,-2.32 -3.99,-3.48 l 2.32,-2.13 c 3.81,4.41 9.38,6.68 16.71,6.78 3.39,0 6.27,-0.51 8.54,-1.48 2.27,-0.98 3.95,-2.23 5.11,-3.85 1.16,-1.58 1.72,-3.29 1.72,-5.2 0,-2.14 -0.7,-3.9 -2.14,-5.29 -1.44,-1.39 -3.3,-2.6 -5.57,-3.57 -2.27,-0.97 -4.73,-1.86 -7.38,-2.74 -5.62,-1.86 -9.75,-3.67 -12.39,-5.43 -3.85,-2.55 -5.8,-5.94 -5.8,-10.17 0,-4.04 1.86,-7.38 5.62,-9.98 3.76,-2.55 8.54,-3.85 14.44,-3.85 2.74,0 5.25,0.42 7.57,1.25 2.32,0.88 4.32,1.86 5.99,3.02 1.67,1.16 2.92,2.27 3.81,3.25 l -2.37,2.14 -1.02,-0.97 c -0.7,-0.7 -1.67,-1.44 -2.92,-2.27 -1.3,-0.84 -2.88,-1.58 -4.69,-2.27 -1.86,-0.65 -3.95,-0.98 -6.22,-0.98 -4.18,0 -7.47,0.79 -9.93,2.41 -2.46,1.62 -3.71,3.62 -3.71,5.94 0,2.23 0.74,4.04 2.18,5.48 1.44,1.44 3.34,2.65 5.66,3.62 2.27,0.97 4.74,1.9 7.38,2.79 5.62,1.81 9.7,3.62 12.3,5.34 3.85,2.51 5.76,5.9 5.76,10.12 0,2.79 -0.93,5.38 -2.79,7.75 -1.9,2.41 -4.5,4.36 -7.8,5.85 -3.29,1.53 -7.15,2.27 -11.51,2.27 -3.41,-0.04 -6.29,-0.46 -8.75,-1.29 z"
				id="path2312"
		/>
		<path
				style="fill:#800080"
				class="st0"
				d="m 678.8,509.11 v -52.64 h 37.88 v 3.16 h -31.56 v 21.58 h 28.41 v 3.16 h -28.41 v 21.58 h 32.63 v 3.16 z"
				id="path2314"
		/>
		<path
				style="fill:#800080"
				class="st0"
				d="m 748.39,456.48 h 4.27 l 23.63,52.64 h -51.57 z m 0,6.96 -19.08,42.52 h 38.8 z"
				id="path2316"
		/>
		<path
				style="fill:#800080"
				class="st0"
				d="m 819.46,509.11 -15.18,-24.74 h -14.71 v 24.74 h -6.31 v -52.64 h 23.12 c 3.29,0 6.27,0.6 9,1.76 2.74,1.21 4.87,2.83 6.5,4.92 1.63,2.09 2.41,4.5 2.41,7.24 0,3.43 -1.21,6.36 -3.67,8.73 -2.46,2.37 -5.62,3.99 -9.52,4.78 l 15.5,25.2 h -7.14 z m -5.2,-30.82 c 2.13,-1.95 3.2,-4.59 3.2,-7.89 0,-3.3 -1.07,-5.9 -3.2,-7.84 -2.14,-1.95 -4.78,-2.92 -7.89,-2.92 h -16.8 v 21.58 h 16.8 c 3.11,0 5.76,-0.98 7.89,-2.93 z"
				id="path2318"
		/>
		<path
				style="fill:#800080"
				class="st0"
				d="m 847.08,506.33 c -4.08,-2.46 -7.33,-5.76 -9.79,-9.89 -2.46,-4.13 -3.71,-8.73 -3.71,-13.74 0,-5.06 1.25,-9.66 3.71,-13.79 2.46,-4.13 5.71,-7.47 9.79,-9.93 4.04,-2.46 8.49,-3.67 13.32,-3.67 3.39,0 6.59,0.6 9.61,1.81 3.02,1.25 5.76,2.97 8.17,5.15 l -3.2,3.2 c -3.76,-4.69 -8.63,-7.01 -14.58,-7.01 -3.95,0 -7.38,1.07 -10.4,3.16 -3.02,2.09 -5.34,4.97 -7.06,8.59 -1.72,3.67 -2.55,7.8 -2.55,12.49 0,4.64 0.84,8.77 2.55,12.44 1.67,3.67 3.99,6.5 7.01,8.59 3.02,2.09 6.5,3.16 10.44,3.16 5.99,0 10.86,-2.32 14.58,-7.01 l 3.2,3.2 c -2.41,2.18 -5.15,3.9 -8.17,5.11 -3.02,1.25 -6.22,1.86 -9.61,1.86 -4.81,-0.01 -9.27,-1.26 -13.31,-3.72 z"
				id="path2320"
		/>
		<path
				style="fill:#800080"
				class="st0"
				d="m 926.19,509.11 v -24.74 h -34.72 v 24.74 h -6.31 v -52.64 h 6.31 v 24.74 h 34.72 v -24.74 h 6.31 v 52.64 z"
				id="path2322"
		/>
	</g>
</svg>
